<svg width="78" height="41" viewBox="0 0 78 41" fill="none" xmlns="http://www.w3.org/2000/svg">
<rect y="0.5" width="78" height="40" rx="6" fill="#111111"/>
<path d="M53.4012 29.4893C55.4219 29.4893 56.3729 28.7183 57.2037 26.3811L60.8431 16.1734H58.7359L56.2954 24.0707H56.2526L53.8121 16.1841H51.6452L55.1562 25.8998L54.9682 26.4908C54.8354 27.3367 54.0759 27.9401 53.2211 27.8777C53.058 27.8777 52.7416 27.8608 52.6132 27.8438V29.4483C52.8744 29.4839 53.1382 29.5009 53.4012 29.5V29.4893ZM46.3791 24.3774C45.2738 24.3774 44.5723 23.8426 44.5723 23.0332C44.5723 22.1944 45.2489 21.706 46.5422 21.6284L48.8455 21.4831V22.2372C48.7947 23.4798 47.7455 24.4469 46.503 24.3961C46.4611 24.3943 46.4201 24.3907 46.3791 24.3872V24.3774ZM45.8229 25.9613C47.077 25.9952 48.25 25.3418 48.8802 24.257H48.923V25.8615H50.8412V19.2164C50.8412 17.2893 49.3001 16.0477 46.9273 16.0477C44.7265 16.0477 43.0989 17.3063 43.0392 19.0364H44.9066C45.1294 18.1566 45.9655 17.5763 46.8676 17.6744C48.1351 17.6744 48.8455 18.2654 48.8455 19.3528V20.0891L46.2605 20.2433C43.8539 20.3886 42.5525 21.3735 42.5525 23.0867C42.5507 24.8239 43.8949 25.9711 45.822 25.9711L45.8229 25.9613ZM34.7068 14.2552H37.0957C38.8944 14.2552 39.9221 15.2143 39.9221 16.9016C39.9221 18.5889 38.8944 19.556 37.0876 19.556H34.7068V14.2552ZM32.6344 12.5081V25.8588H34.7068V21.3075H37.5761C39.9132 21.4332 41.909 19.6407 42.0346 17.3036C42.0418 17.1708 42.0427 17.0389 42.0373 16.9061C42.1479 14.5948 40.3643 12.632 38.053 12.5206C37.9166 12.5144 37.7811 12.5153 37.6447 12.5215L32.6344 12.5081ZM25.7559 14.9994C24.565 14.9308 23.5462 15.676 22.9811 15.676C22.416 15.676 21.5425 15.0342 20.6003 15.052C19.3524 15.0841 18.215 15.7749 17.6116 16.8677C16.3271 19.0774 17.2773 22.3486 18.519 24.1465C19.1269 25.0379 19.856 26.0139 20.8142 25.9791C21.7216 25.9453 22.0817 25.3882 23.1781 25.3882C24.2744 25.3882 24.5998 25.9791 25.5589 25.9613C26.5519 25.9444 27.1776 25.0699 27.7873 24.1786C28.2169 23.5475 28.5512 22.8567 28.7802 22.1285C27.6099 21.6168 26.8513 20.4643 26.8451 19.187C26.8629 18.0604 27.453 17.021 28.4121 16.4301C27.8006 15.5619 26.8193 15.0289 25.7577 14.9914L25.7559 14.9994ZM25.0125 13.8202C24.491 14.4771 23.6933 14.8542 22.8545 14.839C22.801 14.0207 23.0791 13.2159 23.6255 12.6044C24.1693 11.9733 24.9358 11.5775 25.7648 11.5C25.8236 12.3414 25.5535 13.1722 25.0107 13.8175" fill="white"/>
</svg>
