<svg width="78" height="41" viewBox="0 0 78 41" fill="none" xmlns="http://www.w3.org/2000/svg">
<rect y="0.5" width="78" height="40" rx="6" fill="#FF7E00"/>
<path d="M38.8107 19.7794C39.5472 20.0249 41.1497 20.559 41.5047 19.444C41.8671 18.303 40.3058 17.8538 39.5413 17.6339C39.4547 17.6089 39.3783 17.587 39.3161 17.5672L38.6315 19.7207C38.6829 19.7368 38.7431 19.7569 38.8107 19.7794Z" fill="white"/>
<path d="M37.7415 23.2486C38.6237 23.541 40.5531 24.1807 40.9435 22.9519C41.3429 21.6956 39.4675 21.1513 38.5524 20.8857C38.4503 20.8561 38.3598 20.8299 38.2862 20.8066L37.5312 23.1798C37.5916 23.1989 37.6625 23.2224 37.7415 23.2486Z" fill="white"/>
<path fill-rule="evenodd" clip-rule="evenodd" d="M48.9791 21.1251C48.6339 26.6369 43.886 30.8253 38.3744 30.4801C32.8628 30.1349 28.6747 25.3868 29.0199 19.8749C29.3651 14.3631 34.113 10.1747 39.6246 10.5199C45.1362 10.8651 49.3244 15.6132 48.9791 21.1251ZM41.6293 16.9422C42.9877 17.5059 43.9584 18.2833 43.676 19.5993C43.4704 20.5631 42.8996 20.9997 42.1702 21.1194C43.1248 21.6928 43.4002 22.685 43.0142 23.8396C42.3151 25.4922 40.8961 25.5462 39.0426 25.0755L38.4734 26.8634L37.3911 26.5212L37.9526 24.7573C37.6719 24.6689 37.3854 24.5752 37.0903 24.4759L36.5265 26.2485L35.4455 25.9064L36.0143 24.1147L33.8347 23.4194L34.4595 22.1994C34.4595 22.1994 35.2567 22.4642 35.2464 22.4479C35.5529 22.5441 35.704 22.3506 35.7669 22.2199L37.3098 17.367C37.3382 17.1351 37.2758 16.8368 36.8373 16.6978C36.855 16.687 36.051 16.45 36.051 16.45L36.4168 15.2983L38.6002 15.9845L39.1639 14.2131L40.2456 14.5553L39.6934 16.2916C39.9849 16.3769 40.2776 16.4635 40.5619 16.5534L41.1102 14.828L42.1925 15.1702L41.6293 16.9422Z" fill="white"/>
</svg>
