<svg width="80" height="80" viewBox="0 0 80 80" fill="none" xmlns="http://www.w3.org/2000/svg">
<rect width="80" height="80" rx="40" fill="#FF3B30"/>
<g clip-path="url(#clip0_417_31141)">
<path d="M33.1066 29.3341H50.6666C52.1466 29.3341 53.3333 30.5208 53.3333 32.0008V48.0008C53.3333 48.4541 53.2266 48.8808 53.0266 49.2541L50.6666 46.8941V40.0008H43.7733L38.4399 34.6674H50.6666V32.0008H35.7733L33.1066 29.3341ZM51.3199 55.0808L46.8933 50.6674H29.3333C27.8533 50.6674 26.6666 49.4808 26.6666 48.0008L26.6799 32.0008C26.6799 31.5474 26.7866 31.1208 26.9866 30.7608L24.9199 28.6808L26.7999 26.8008L53.1999 53.2008L51.3199 55.0808ZM29.3333 33.1074V34.6674H30.8933L29.3333 33.1074ZM44.2266 48.0008L36.2266 40.0008H29.3333V48.0008H44.2266Z" fill="white"/>
</g>
<defs>
<clipPath id="clip0_417_31141">
<rect width="32" height="32" fill="white" transform="translate(24 24)"/>
</clipPath>
</defs>
</svg>
