<svg width="78" height="41" viewBox="0 0 78 41" fill="none" xmlns="http://www.w3.org/2000/svg">
<rect y="0.5" width="78" height="40" rx="6" fill="#CCECFF"/>
<path d="M45.4011 15.5273C45.4011 15.6343 45.4011 15.7413 45.2942 15.8482C44.4386 20.1263 41.6578 21.5167 38.0214 21.5167H36.2032C35.7754 21.5167 35.3476 21.8375 35.3476 22.2653L34.385 28.2547L34.1711 29.9659C34.1711 30.2868 34.385 30.5007 34.5989 30.5007H37.9145C38.3423 30.5007 38.6631 30.1798 38.6631 29.859V29.6451L39.3049 25.7948V25.5809C39.4118 25.1531 39.7327 24.9392 40.0535 24.9392H40.5883C43.7969 24.9392 46.2568 23.6557 46.8985 19.9124C47.2193 18.3081 47.0054 17.0247 46.2568 16.1691C46.0429 15.9552 45.722 15.7412 45.4011 15.5273Z" fill="#2199D6"/>
<path d="M44.5455 15.2056C44.4386 15.2056 44.3317 15.0987 44.1177 15.0987C44.0108 15.0987 43.7969 14.9917 43.6899 14.9917C43.1552 14.8848 42.6204 14.8848 42.0856 14.8848H37.1658C37.0589 14.8848 36.9519 14.8848 36.845 14.9917C36.6311 15.0987 36.4172 15.3126 36.4172 15.5265L35.3477 22.1575V22.3714C35.4546 21.9436 35.7755 21.6228 36.2033 21.6228H38.0215C41.6578 21.6228 44.4386 20.1254 45.2942 15.9543C45.2942 15.8473 45.2942 15.7404 45.4012 15.6334C45.1873 15.5265 44.9734 15.4195 44.7595 15.3126C44.6525 15.2056 44.5455 15.2056 44.5455 15.2056Z" fill="#252C5E"/>
<path d="M36.4171 15.5268C36.4171 15.3129 36.631 15.0989 36.8449 14.992C36.9519 14.992 37.0589 14.885 37.1658 14.885H42.0856C42.6204 14.885 43.2621 14.885 43.6899 14.992C43.7968 14.992 44.0108 14.992 44.1177 15.0989C44.2247 15.0989 44.3316 15.2059 44.5455 15.2059C44.6525 15.2059 44.6525 15.2059 44.7594 15.3129C44.9733 15.4198 45.1872 15.5268 45.4011 15.6337C45.615 14.0294 45.4011 12.9599 44.5455 11.9973C43.5829 10.9278 41.8717 10.5 39.7327 10.5H33.4225C32.9947 10.5 32.5668 10.8209 32.5668 11.2487L30 27.7193C30 28.0402 30.2139 28.361 30.5348 28.361H34.385L35.3476 22.1578L36.4171 15.5268Z" fill="#263577"/>
</svg>
