<svg width="78" height="41" viewBox="0 0 78 41" fill="none" xmlns="http://www.w3.org/2000/svg">
<rect y="0.5" width="78" height="40" rx="6" fill="#6461FC"/>
<path fill-rule="evenodd" clip-rule="evenodd" d="M40.4766 13.9392L37.4532 14.5881V12.1368L40.4766 11.5V13.9392ZM46.7641 15.297C45.5837 15.297 44.8248 15.8498 44.4032 16.2343L44.2466 15.4893H41.5966V29.5L44.608 28.8631L44.62 25.4626C45.0536 25.775 45.6921 26.2196 46.7521 26.2196C48.9082 26.2196 50.8716 24.4893 50.8716 20.6802C50.8596 17.1956 48.8721 15.297 46.7641 15.297ZM46.0413 23.576C45.3307 23.576 44.9091 23.3236 44.62 23.0112L44.6079 18.5533C44.9211 18.2048 45.3547 17.9645 46.0413 17.9645C47.1375 17.9645 47.8963 19.1901 47.8963 20.7642C47.8963 22.3744 47.1495 23.576 46.0413 23.576ZM60.3636 20.8004C60.3636 17.7243 58.8699 15.297 56.0151 15.297C53.1483 15.297 51.4138 17.7243 51.4138 20.7763C51.4138 24.3932 53.4615 26.2196 56.4006 26.2196C57.834 26.2196 58.9181 25.8952 59.7372 25.4385V23.0353C58.9181 23.4439 57.9786 23.6962 56.7861 23.6962C55.6176 23.6962 54.5817 23.2877 54.4492 21.8698H60.3395C60.3395 21.8036 60.3438 21.6534 60.3488 21.4803L60.3488 21.4798V21.4796L60.3488 21.4793L60.3488 21.4789L60.3488 21.4786L60.3488 21.4784C60.3556 21.2432 60.3636 20.9662 60.3636 20.8004ZM54.413 19.6588C54.413 18.301 55.2442 17.7362 56.003 17.7362C56.7378 17.7362 57.5208 18.301 57.5208 19.6588H54.413ZM37.4529 15.5014H40.4764V26.0154H37.4529V15.5014ZM34.0203 15.5014L34.213 16.3906C34.9237 15.0929 36.333 15.3572 36.7185 15.5014V18.2651C36.3451 18.1329 35.1405 17.9647 34.4298 18.8899V26.0154H31.4185V15.5014H34.0203ZM28.1901 12.8938L25.251 13.5186L25.239 23.1435C25.239 24.9218 26.576 26.2316 28.3587 26.2316C29.3465 26.2316 30.0692 26.0513 30.4667 25.8351V23.3958C30.0812 23.552 28.1781 24.1048 28.1781 22.3264V18.0607H30.4667V15.5013H28.1781L28.1901 12.8938ZM21.0714 17.9045C20.433 17.9045 20.0475 18.0847 20.0475 18.5534C20.0475 19.065 20.7109 19.2901 21.5339 19.5693C22.8755 20.0246 24.6414 20.6237 24.6489 22.8431C24.6489 24.994 22.9264 26.2316 20.4209 26.2316C19.385 26.2316 18.2527 26.0273 17.1325 25.5467V22.6869C18.1443 23.2396 19.4211 23.6482 20.4209 23.6482C21.0955 23.6482 21.5773 23.4679 21.5773 22.9152C21.5773 22.3484 20.8582 22.0894 19.99 21.7766C18.6679 21.3003 17 20.6995 17 18.6976C17 16.5707 18.6261 15.297 21.0714 15.297C22.0712 15.297 23.0589 15.4532 24.0587 15.8498V18.6735C23.1432 18.1809 21.9868 17.9045 21.0714 17.9045Z" fill="white"/>
</svg>
