<svg width="80" height="80" viewBox="0 0 80 80" fill="none" xmlns="http://www.w3.org/2000/svg">
<rect width="80" height="80" rx="40" fill="#26A212"/>
<g clip-path="url(#clip0_483_13709)">
<path d="M50.6667 29.334H29.3334C27.8534 29.334 26.68 30.5207 26.68 32.0007L26.6667 48.0006C26.6667 49.4806 27.8534 50.6673 29.3334 50.6673H34.6667C35.4 50.6673 36 50.0673 36 49.334C36 48.6006 35.4 48.0006 34.6667 48.0006H29.3334V40.0007H53.3334V32.0007C53.3334 30.534 52.1334 29.334 50.6667 29.334ZM50.6667 34.6673H29.3334V32.0007H50.6667V34.6673ZM43.9067 49.5606L41.08 46.734C40.56 46.214 39.72 46.214 39.2 46.734C38.68 47.254 38.68 48.094 39.2 48.614L42.9734 52.3873C43.4934 52.9073 44.3334 52.9073 44.8534 52.3873L52.4 44.8407C52.92 44.3207 52.92 43.4807 52.4 42.9607C51.88 42.4407 51.04 42.4407 50.52 42.9607L43.9067 49.5606Z" fill="white"/>
</g>
<defs>
<clipPath id="clip0_483_13709">
<rect width="32" height="32" fill="white" transform="translate(24 24)"/>
</clipPath>
</defs>
</svg>
